<svg xmlns="http://www.w3.org/2000/svg" xmlns:xlink="http://www.w3.org/1999/xlink" contentStyleType="text/css" data-diagram-type="CLASS" height="310px" preserveAspectRatio="none" style="width:236px;height:310px;background:#1B1B1B;" version="1.1" viewBox="0 0 236 310" width="236px" zoomAndPan="magnify"><?plantuml 1.2026.3?><defs/><g><rect fill="#1B1B1B" height="310" style="stroke:none;stroke-width:1;" width="236" x="0" y="0"/><!--entity workdir--><g class="entity" data-qualified-name="workdir" data-source-line="1" id="ent0002"><path d="M24,6 L65,6 A3.75,3.75 0 0 1 67.5,8.5 L74.5,27 L101.4111,27 A2.5,2.5 0 0 1 103.9111,29.5 L103.9111,57.7969 A2.5,2.5 0 0 1 101.4111,60.2969 L24,60.2969 A2.5,2.5 0 0 1 21.5,57.7969 L21.5,8.5 A2.5,2.5 0 0 1 24,6" fill="#313139" style="stroke:#E7E7E7;stroke-width:0.5;"/><line style="stroke:#E7E7E7;stroke-width:0.5;" x1="21.5" x2="74.5" y1="27" y2="27"/><text fill="#FFFFFF" font-family="sans-serif" font-size="14" lengthAdjust="spacing" textLength="52.4111" x="31.5" y="46.9951">workdir</text></g><!--entity slicing--><g class="entity" data-qualified-name="slicing" data-source-line="10" id="ent0005"><path d="M150,241 L191,241 A3.75,3.75 0 0 1 193.5,243.5 L200.5,262 L219.4199,262 A2.5,2.5 0 0 1 221.9199,264.5 L221.9199,292.7969 A2.5,2.5 0 0 1 219.4199,295.2969 L150,295.2969 A2.5,2.5 0 0 1 147.5,292.7969 L147.5,243.5 A2.5,2.5 0 0 1 150,241" fill="#313139" style="stroke:#E7E7E7;stroke-width:0.5;"/><line style="stroke:#E7E7E7;stroke-width:0.5;" x1="147.5" x2="200.5" y1="262" y2="262"/><text fill="#FFFFFF" font-family="sans-serif" font-size="14" lengthAdjust="spacing" textLength="44.4199" x="157.5" y="281.9951">slicing</text></g><g class="entity" data-qualified-name="Display" data-source-line="3" id="ent0003"><rect fill="#313139" height="60.8906" rx="2.5" ry="2.5" style="stroke:#E7E7E7;stroke-width:0.5;" width="110.7793" x="7" y="120"/><text fill="#FFFFFF" font-family="sans-serif" font-size="14" lengthAdjust="spacing" textLength="51.6045" x="36.5874" y="134.9951">Display</text><line style="stroke:#E7E7E7;stroke-width:0.5;" x1="8" x2="116.7793" y1="140.2969" y2="140.2969"/><text fill="#FFFFFF" font-family="sans-serif" font-size="14" lengthAdjust="spacing" textLength="98.7793" x="13" y="157.292">--downsample</text><text fill="#FFFFFF" font-family="sans-serif" font-size="14" lengthAdjust="spacing" textLength="16.502" x="13" y="173.5889">-w</text></g><g class="entity" data-qualified-name="Select" data-source-line="7" id="ent0004"><rect fill="#313139" height="44.5938" rx="2.5" ry="2.5" style="stroke:#E7E7E7;stroke-width:0.5;" width="63.0576" x="153" y="128"/><text fill="#FFFFFF" font-family="sans-serif" font-size="14" lengthAdjust="spacing" textLength="43.1895" x="162.9341" y="142.9951">Select</text><line style="stroke:#E7E7E7;stroke-width:0.5;" x1="154" x2="215.0576" y1="148.2969" y2="148.2969"/><text fill="#FFFFFF" font-family="sans-serif" font-size="14" lengthAdjust="spacing" textLength="51.0576" x="159" y="165.292">--round</text></g><!--link workdir to Display--><g class="link" data-entity-1="ent0002" data-entity-2="ent0003" data-link-type="dependency" data-source-line="13" id="lnk6"><path codeLine="13" d="M62.5,60.21 C62.5,77.91 62.5,95.32 62.5,113.73" fill="none" id="workdir-to-Display" style="stroke:#E7E7E7;stroke-width:1;"/><polygon fill="#E7E7E7" points="62.5,119.73,66.5,110.73,62.5,114.73,58.5,110.73,62.5,119.73" style="stroke:#E7E7E7;stroke-width:1;"/></g><!--link Display to Select--><g class="link" data-entity-1="ent0003" data-entity-2="ent0004" data-link-type="dependency" data-source-line="14" id="lnk7"><path codeLine="14" d="M118.26,150.5 C129.82,150.5 135.37,150.5 146.93,150.5" fill="none" id="Display-to-Select" style="stroke:#E7E7E7;stroke-width:1;"/><polygon fill="#E7E7E7" points="152.93,150.5,143.93,146.5,147.93,150.5,143.93,154.5,152.93,150.5" style="stroke:#E7E7E7;stroke-width:1;"/></g><!--link Select to slicing--><g class="link" data-entity-1="ent0004" data-entity-2="ent0005" data-link-type="dependency" data-source-line="15" id="lnk8"><path codeLine="15" d="M184.5,173.22 C184.5,192.44 184.5,214.51 184.5,234.92" fill="none" id="Select-to-slicing" style="stroke:#E7E7E7;stroke-width:1;"/><polygon fill="#E7E7E7" points="184.5,240.92,188.5,231.92,184.5,235.92,180.5,231.92,184.5,240.92" style="stroke:#E7E7E7;stroke-width:1;"/></g><?plantuml-src HSp13O0W30NGUwTWWQxWoGsSG2qQj5826cACkmiAyTJaz_yt2PFsAefVoNXrmGqoB7hSLMk2u_vC4I99jA7V76l0-5SwpVdaXfV3KlfCdnVOZCREhmSLHsog2bLFqQT0mNAfh1y0?></g></svg>