<svg xmlns="http://www.w3.org/2000/svg" xmlns:xlink="http://www.w3.org/1999/xlink" contentStyleType="text/css" data-diagram-type="CLASS" height="199px" preserveAspectRatio="none" style="width:597px;height:199px;background:#1B1B1B;" version="1.1" viewBox="0 0 597 199" width="597px" zoomAndPan="magnify"><?plantuml 1.2026.3?><defs/><g><rect fill="#1B1B1B" height="199" style="stroke:none;stroke-width:1;" width="597" x="0" y="0"/><!--entity telemetry--><g class="entity" data-qualified-name="telemetry" data-source-line="3" id="ent0002"><rect fill="#770000" height="22.2969" rx="2.5" ry="2.5" style="stroke:#E7E7E7;stroke-width:0.5;" width="88.3867" x="7" y="21"/><text fill="#FFFFFF" font-family="sans-serif" font-size="14" lengthAdjust="spacing" textLength="68.3867" x="17" y="36.9951">telemetry</text></g><!--entity mosaic--><g class="entity" data-qualified-name="mosaic" data-source-line="25" id="ent0012"><rect fill="#770000" height="22.2969" rx="2.5" ry="2.5" style="stroke:#E7E7E7;stroke-width:0.5;" width="69.6631" x="254" y="149"/><text fill="#FFFFFF" font-family="sans-serif" font-size="14" lengthAdjust="spacing" textLength="49.6631" x="264" y="164.9951">mosaic</text></g><!--entity catalog--><g class="entity" data-qualified-name="catalog" data-source-line="27" id="ent0013"><rect fill="#313139" height="22.2969" rx="2.5" ry="2.5" style="stroke:#E7E7E7;stroke-width:0.5;" width="71.6865" x="253" y="21"/><text fill="#FFFFFF" font-family="sans-serif" font-size="14" lengthAdjust="spacing" textLength="51.6865" x="263" y="36.9951">catalog</text></g><!--entity cosmology--><g class="entity" data-qualified-name="cosmology" data-source-line="29" id="ent0014"><rect fill="#313139" height="22.2969" rx="2.5" ry="2.5" style="stroke:#E7E7E7;stroke-width:0.5;" width="95.3867" x="488" y="149"/><text fill="#FFFFFF" font-family="sans-serif" font-size="14" lengthAdjust="spacing" textLength="75.3867" x="498" y="164.9951">cosmology</text></g><g class="entity" data-qualified-name="LE1" data-source-line="6" id="ent0003"><rect fill="#770000" height="36.2969" rx="2.5" ry="2.5" style="stroke:#E7E7E7;stroke-width:0.5;" width="39.5527" x="31" y="78"/><text fill="#FFFFFF" font-family="sans-serif" font-size="14" lengthAdjust="spacing" textLength="25.5527" x="38" y="92.9951">LE1</text><line style="stroke:#E7E7E7;stroke-width:0.5;" x1="32" x2="69.5527" y1="98.2969" y2="98.2969"/></g><g class="entity" data-qualified-name="VIS" data-source-line="8" id="ent0004"><rect fill="#770000" height="36.2969" rx="2.5" ry="2.5" style="stroke:#E7E7E7;stroke-width:0.5;" width="36.5928" x="155.5" y="7"/><text fill="#FFFFFF" font-family="sans-serif" font-size="14" lengthAdjust="spacing" textLength="22.5928" x="162.5" y="21.9951">VIS</text><line style="stroke:#E7E7E7;stroke-width:0.5;" x1="156.5" x2="191.0928" y1="27.2969" y2="27.2969"/></g><g class="entity" data-qualified-name="NIR" data-source-line="10" id="ent0005"><rect fill="#770000" height="36.2969" rx="2.5" ry="2.5" style="stroke:#E7E7E7;stroke-width:0.5;" width="38.3291" x="155" y="78"/><text fill="#FFFFFF" font-family="sans-serif" font-size="14" lengthAdjust="spacing" textLength="24.3291" x="162" y="92.9951">NIR</text><line style="stroke:#E7E7E7;stroke-width:0.5;" x1="156" x2="192.3291" y1="98.2969" y2="98.2969"/></g><g class="entity" data-qualified-name="MER" data-source-line="12" id="ent0006"><rect fill="#770000" height="36.2969" rx="2.5" ry="2.5" style="stroke:#E7E7E7;stroke-width:0.5;" width="44.6523" x="266.5" y="78"/><text fill="#FFFFFF" font-family="sans-serif" font-size="14" lengthAdjust="spacing" textLength="30.6523" x="273.5" y="92.9951">MER</text><line style="stroke:#E7E7E7;stroke-width:0.5;" x1="267.5" x2="310.1523" y1="98.2969" y2="98.2969"/></g><g class="entity" data-qualified-name="SIR" data-source-line="14" id="ent0007"><rect fill="#313139" height="36.2969" rx="2.5" ry="2.5" style="stroke:#E7E7E7;stroke-width:0.5;" width="36.7432" x="155.5" y="149"/><text fill="#FFFFFF" font-family="sans-serif" font-size="14" lengthAdjust="spacing" textLength="22.7432" x="162.5" y="163.9951">SIR</text><line style="stroke:#E7E7E7;stroke-width:0.5;" x1="156.5" x2="191.2432" y1="169.2969" y2="169.2969"/></g><g class="entity" data-qualified-name="SHE" data-source-line="16" id="ent0008"><rect fill="#313139" height="36.2969" rx="2.5" ry="2.5" style="stroke:#E7E7E7;stroke-width:0.5;" width="42.2598" x="385.5" y="7"/><text fill="#FFFFFF" font-family="sans-serif" font-size="14" lengthAdjust="spacing" textLength="28.2598" x="392.5" y="21.9951">SHE</text><line style="stroke:#E7E7E7;stroke-width:0.5;" x1="386.5" x2="426.7598" y1="27.2969" y2="27.2969"/></g><g class="entity" data-qualified-name="PHZ" data-source-line="18" id="ent0009"><rect fill="#313139" height="36.2969" rx="2.5" ry="2.5" style="stroke:#E7E7E7;stroke-width:0.5;" width="42.5605" x="385" y="78"/><text fill="#FFFFFF" font-family="sans-serif" font-size="14" lengthAdjust="spacing" textLength="28.5605" x="392" y="92.9951">PHZ</text><line style="stroke:#E7E7E7;stroke-width:0.5;" x1="386" x2="426.5605" y1="98.2969" y2="98.2969"/></g><g class="entity" data-qualified-name="SPE" data-source-line="20" id="ent0010"><rect fill="#313139" height="36.2969" rx="2.5" ry="2.5" style="stroke:#E7E7E7;stroke-width:0.5;" width="40.1748" x="386.5" y="149"/><text fill="#FFFFFF" font-family="sans-serif" font-size="14" lengthAdjust="spacing" textLength="26.1748" x="393.5" y="163.9951">SPE</text><line style="stroke:#E7E7E7;stroke-width:0.5;" x1="387.5" x2="425.6748" y1="169.2969" y2="169.2969"/></g><g class="entity" data-qualified-name="LE3" data-source-line="22" id="ent0011"><rect fill="#313139" height="36.2969" rx="2.5" ry="2.5" style="stroke:#E7E7E7;stroke-width:0.5;" width="39.5527" x="515.5" y="78"/><text fill="#FFFFFF" font-family="sans-serif" font-size="14" lengthAdjust="spacing" textLength="25.5527" x="522.5" y="92.9951">LE3</text><line style="stroke:#E7E7E7;stroke-width:0.5;" x1="516.5" x2="554.0527" y1="98.2969" y2="98.2969"/></g><!--link telemetry to LE1--><g class="link" data-entity-1="ent0002" data-entity-2="ent0003" data-link-type="dependency" data-source-line="32" id="lnk15"><path codeLine="32" d="M51,43.02 C51,54.51 51,60.01 51,71.5" fill="none" id="telemetry-to-LE1" style="stroke:#E7E7E7;stroke-width:1;"/><polygon fill="#E7E7E7" points="51,77.5,55,68.5,51,72.5,47,68.5,51,77.5" style="stroke:#E7E7E7;stroke-width:1;"/></g><!--link LE1 to VIS--><g class="link" data-entity-1="ent0003" data-entity-2="ent0004" data-link-type="dependency" data-source-line="34" id="lnk16"><path codeLine="34" d="M71.17,84.75 C94.36,71.14 127.8945,51.4656 150.3145,38.3156" fill="none" id="LE1-to-VIS" style="stroke:#E7E7E7;stroke-width:1;"/><polygon fill="#E7E7E7" points="155.49,35.28,145.7031,36.383,151.1771,37.8096,149.7505,43.2836,155.49,35.28" style="stroke:#E7E7E7;stroke-width:1;"/></g><!--link LE1 to NIR--><g class="link" data-entity-1="ent0003" data-entity-2="ent0005" data-link-type="dependency" data-source-line="35" id="lnk17"><path codeLine="35" d="M71.17,96 C94.1,96 126.18,96 148.71,96" fill="none" id="LE1-to-NIR" style="stroke:#E7E7E7;stroke-width:1;"/><polygon fill="#E7E7E7" points="154.71,96,145.71,92,149.71,96,145.71,100,154.71,96" style="stroke:#E7E7E7;stroke-width:1;"/></g><!--link LE1 to SIR--><g class="link" data-entity-1="ent0003" data-entity-2="ent0007" data-link-type="dependency" data-source-line="36" id="lnk18"><path codeLine="36" d="M71.17,107.25 C94.36,120.86 127.8945,140.5344 150.3145,153.6844" fill="none" id="LE1-to-SIR" style="stroke:#E7E7E7;stroke-width:1;"/><polygon fill="#E7E7E7" points="155.49,156.72,149.7505,148.7164,151.1771,154.1904,145.7031,155.617,155.49,156.72" style="stroke:#E7E7E7;stroke-width:1;"/></g><!--link VIS to MER--><g class="link" data-entity-1="ent0004" data-entity-2="ent0006" data-link-type="dependency" data-source-line="37" id="lnk19"><path codeLine="37" d="M192.66,36.09 C212.52,48.57 239.7204,65.6566 261.1304,79.1166" fill="none" id="VIS-to-MER" style="stroke:#E7E7E7;stroke-width:1;"/><polygon fill="#E7E7E7" points="266.21,82.31,260.7196,74.1335,261.977,79.6488,256.4617,80.9063,266.21,82.31" style="stroke:#E7E7E7;stroke-width:1;"/></g><!--link NIR to MER--><g class="link" data-entity-1="ent0005" data-entity-2="ent0006" data-link-type="dependency" data-source-line="38" id="lnk20"><path codeLine="38" d="M193.16,96 C213.12,96 239.18,96 260.41,96" fill="none" id="NIR-to-MER" style="stroke:#E7E7E7;stroke-width:1;"/><polygon fill="#E7E7E7" points="266.41,96,257.41,92,261.41,96,257.41,100,266.41,96" style="stroke:#E7E7E7;stroke-width:1;"/></g><!--link SIR to MER--><g class="link" data-entity-1="ent0007" data-entity-2="ent0006" data-link-type="dependency" data-source-line="39" id="lnk21"><path codeLine="39" d="M192.66,155.91 C212.52,143.43 239.7204,126.3434 261.1304,112.8834" fill="none" id="SIR-to-MER" style="stroke:#E7E7E7;stroke-width:1;"/><polygon fill="#E7E7E7" points="266.21,109.69,256.4617,111.0937,261.977,112.3512,260.7196,117.8665,266.21,109.69" style="stroke:#E7E7E7;stroke-width:1;"/></g><!--link MER to SHE--><g class="link" data-entity-1="ent0006" data-entity-2="ent0008" data-link-type="dependency" data-source-line="40" id="lnk22"><path codeLine="40" d="M311.72,82.65 C332.9,69.63 359.7189,53.1426 380.3089,40.4826" fill="none" id="MER-to-SHE" style="stroke:#E7E7E7;stroke-width:1;"/><polygon fill="#E7E7E7" points="385.42,37.34,375.6582,38.6465,381.1607,39.9589,379.8484,45.4614,385.42,37.34" style="stroke:#E7E7E7;stroke-width:1;"/></g><!--link MER to PHZ--><g class="link" data-entity-1="ent0006" data-entity-2="ent0009" data-link-type="dependency" data-source-line="41" id="lnk23"><path codeLine="41" d="M311.72,96 C332.64,96 358.04,96 378.65,96" fill="none" id="MER-to-PHZ" style="stroke:#E7E7E7;stroke-width:1;"/><polygon fill="#E7E7E7" points="384.65,96,375.65,92,379.65,96,375.65,100,384.65,96" style="stroke:#E7E7E7;stroke-width:1;"/></g><!--link MER to SPE--><g class="link" data-entity-1="ent0006" data-entity-2="ent0010" data-link-type="dependency" data-source-line="42" id="lnk24"><path codeLine="42" d="M311.72,109.35 C333.16,122.53 360.5087,139.3376 381.0687,151.9776" fill="none" id="MER-to-SPE" style="stroke:#E7E7E7;stroke-width:1;"/><polygon fill="#E7E7E7" points="386.18,155.12,380.6079,146.9989,381.9206,152.5014,376.4181,153.814,386.18,155.12" style="stroke:#E7E7E7;stroke-width:1;"/></g><!--link SHE to LE3--><g class="link" data-entity-1="ent0008" data-entity-2="ent0011" data-link-type="dependency" data-source-line="43" id="lnk25"><path codeLine="43" d="M427.62,36.25 C451.68,49.7 486.4232,69.1215 510.0632,82.3415" fill="none" id="SHE-to-LE3" style="stroke:#E7E7E7;stroke-width:1;"/><polygon fill="#E7E7E7" points="515.3,85.27,509.3972,77.386,510.936,82.8296,505.4925,84.3684,515.3,85.27" style="stroke:#E7E7E7;stroke-width:1;"/></g><!--link PHZ to LE3--><g class="link" data-entity-1="ent0009" data-entity-2="ent0011" data-link-type="dependency" data-source-line="44" id="lnk26"><path codeLine="44" d="M428.19,96 C452.37,96 486.05,96 509.48,96" fill="none" id="PHZ-to-LE3" style="stroke:#E7E7E7;stroke-width:1;"/><polygon fill="#E7E7E7" points="515.48,96,506.48,92,510.48,96,506.48,100,515.48,96" style="stroke:#E7E7E7;stroke-width:1;"/></g><!--link SPE to LE3--><g class="link" data-entity-1="ent0010" data-entity-2="ent0011" data-link-type="dependency" data-source-line="45" id="lnk27"><path codeLine="45" d="M426.51,156.37 C450.46,142.99 486.1126,123.0474 510.1226,109.6274" fill="none" id="SPE-to-LE3" style="stroke:#E7E7E7;stroke-width:1;"/><polygon fill="#E7E7E7" points="515.36,106.7,505.5523,107.5994,510.9955,109.1395,509.4555,114.5827,515.36,106.7" style="stroke:#E7E7E7;stroke-width:1;"/></g><!--link MER to mosaic--><g class="link" data-entity-1="ent0006" data-entity-2="ent0012" data-link-type="dependency" data-source-line="47" id="lnk28"><path codeLine="47" d="M289,114.22 C289,125.81 289,131.41 289,143" fill="none" id="MER-to-mosaic" style="stroke:#E7E7E7;stroke-width:1;"/><polygon fill="#E7E7E7" points="289,149,293,140,289,144,285,140,289,149" style="stroke:#E7E7E7;stroke-width:1;"/></g><!--reverse link catalog to MER--><g class="link" data-entity-1="ent0013" data-entity-2="ent0006" data-link-type="dependency" data-source-line="48" id="lnk29"><path codeLine="48" d="M289,49.02 C289,60.51 289,66.01 289,77.5" fill="none" id="catalog-backto-MER" style="stroke:#E7E7E7;stroke-width:1;"/><polygon fill="#E7E7E7" points="289,43.02,285,52.02,289,48.02,293,52.02,289,43.02" style="stroke:#E7E7E7;stroke-width:1;"/></g><!--link LE3 to cosmology--><g class="link" data-entity-1="ent0011" data-entity-2="ent0014" data-link-type="dependency" data-source-line="49" id="lnk30"><path codeLine="49" d="M535.5,114.22 C535.5,125.81 535.5,131.41 535.5,143" fill="none" id="LE3-to-cosmology" style="stroke:#E7E7E7;stroke-width:1;"/><polygon fill="#E7E7E7" points="535.5,149,539.5,140,535.5,144,531.5,140,535.5,149" style="stroke:#E7E7E7;stroke-width:1;"/></g><?plantuml-src PP2n2eCm48RtUuf0vu2bGvVY5b2mHIfqw6PZQYtQGCmYfU_UksYCulRVTnVklhJgQPdLp3JroxAgCKhQHdy0P6agPbMhEcNDm7R7A69V-07ennjdM2Rs0KxibXORTacl6tOMMrRWtB9CnBBCa_kgcw-wcJYCjxcZEzsNZGmB79IbBLjTBu3kEura65y6KnwJ6m09SYnGQiueCsSy64YOCWe1YVfSB3B9klb4p1br0iy5a2rtYmz0gZwJfy_ZWtZI0ozqucuBVG4sPwi_?></g></svg>