<svg xmlns="http://www.w3.org/2000/svg" xmlns:xlink="http://www.w3.org/1999/xlink" contentStyleType="text/css" data-diagram-type="CLASS" height="311px" preserveAspectRatio="none" style="width:200px;height:311px;background:#1B1B1B;" version="1.1" viewBox="0 0 200 311" width="200px" zoomAndPan="magnify"><?plantuml 1.2026.3?><defs/><g><rect fill="#1B1B1B" height="311" style="stroke:none;stroke-width:1;" width="200" x="0" y="0"/><!--entity target--><g class="entity" data-qualified-name="target" data-source-line="1" id="ent0002"><rect fill="#313139" height="22.2969" rx="2.5" ry="2.5" style="stroke:#E7E7E7;stroke-width:0.5;" width="62.8135" x="7" y="7"/><text fill="#FFFFFF" font-family="sans-serif" font-size="14" lengthAdjust="spacing" textLength="42.8135" x="17" y="22.9951">target</text></g><!--entity workdir--><g class="entity" data-qualified-name="workdir" data-source-line="16" id="ent0005"><path d="M106,242 L147,242 A3.75,3.75 0 0 1 149.5,244.5 L156.5,263 L183.4111,263 A2.5,2.5 0 0 1 185.9111,265.5 L185.9111,293.7969 A2.5,2.5 0 0 1 183.4111,296.2969 L106,296.2969 A2.5,2.5 0 0 1 103.5,293.7969 L103.5,244.5 A2.5,2.5 0 0 1 106,242" fill="#313139" style="stroke:#E7E7E7;stroke-width:0.5;"/><line style="stroke:#E7E7E7;stroke-width:0.5;" x1="103.5" x2="156.5" y1="263" y2="263"/><text fill="#FFFFFF" font-family="sans-serif" font-size="14" lengthAdjust="spacing" textLength="52.4111" x="113.5" y="282.9951">workdir</text></g><g class="entity" data-qualified-name="Query" data-source-line="4" id="ent0003"><rect fill="#313139" height="93.4844" rx="2.5" ry="2.5" style="stroke:#E7E7E7;stroke-width:0.5;" width="56.5469" x="10" y="89"/><text fill="#FFFFFF" font-family="sans-serif" font-size="14" lengthAdjust="spacing" textLength="42.5469" x="17" y="103.9951">Query</text><line style="stroke:#E7E7E7;stroke-width:0.5;" x1="11" x2="65.5469" y1="109.2969" y2="109.2969"/><text fill="#FFFFFF" font-family="sans-serif" font-size="14" lengthAdjust="spacing" textLength="42.9912" x="16" y="126.292">--from</text><text fill="#FFFFFF" font-family="sans-serif" font-size="14" lengthAdjust="spacing" textLength="40.6396" x="16" y="142.5889">--user</text><text fill="#FFFFFF" font-family="sans-serif" font-size="14" lengthAdjust="spacing" textLength="32.04" x="16" y="158.8857">--dsr</text><text fill="#FFFFFF" font-family="sans-serif" font-size="14" lengthAdjust="spacing" textLength="13.9248" x="16" y="175.1826">-n</text></g><g class="entity" data-qualified-name="Download" data-source-line="10" id="ent0004"><rect fill="#313139" height="77.1875" rx="2.5" ry="2.5" style="stroke:#E7E7E7;stroke-width:0.5;" width="83.5898" x="102.5" y="97"/><text fill="#FFFFFF" font-family="sans-serif" font-size="14" lengthAdjust="spacing" textLength="69.5898" x="109.5" y="111.9951">Download</text><line style="stroke:#E7E7E7;stroke-width:0.5;" x1="103.5" x2="185.0898" y1="117.2969" y2="117.2969"/><text fill="#FFFFFF" font-family="sans-serif" font-size="14" lengthAdjust="spacing" textLength="13.9385" x="108.5" y="134.292">-q</text><text fill="#FFFFFF" font-family="sans-serif" font-size="14" lengthAdjust="spacing" textLength="10.8076" x="108.5" y="150.5889">-r</text><text fill="#FFFFFF" font-family="sans-serif" font-size="14" lengthAdjust="spacing" textLength="9.9805" x="108.5" y="166.8857">-f</text></g><!--link target to Query--><g class="link" data-entity-1="ent0002" data-entity-2="ent0003" data-link-type="dependency" data-source-line="19" id="lnk6"><path codeLine="19" d="M38.5,29.25 C38.5,42.67 38.5,61.06 38.5,82.98" fill="none" id="target-to-Query" style="stroke:#E7E7E7;stroke-width:1;"/><polygon fill="#E7E7E7" points="38.5,88.98,42.5,79.98,38.5,83.98,34.5,79.98,38.5,88.98" style="stroke:#E7E7E7;stroke-width:1;"/></g><!--link Query to Download--><g class="link" data-entity-1="ent0003" data-entity-2="ent0004" data-link-type="dependency" data-source-line="20" id="lnk7"><path codeLine="20" d="M67.07,135.5 C78.87,135.5 84.66,135.5 96.46,135.5" fill="none" id="Query-to-Download" style="stroke:#E7E7E7;stroke-width:1;"/><polygon fill="#E7E7E7" points="102.46,135.5,93.46,131.5,97.46,135.5,93.46,139.5,102.46,135.5" style="stroke:#E7E7E7;stroke-width:1;"/></g><!--link Download to workdir--><g class="link" data-entity-1="ent0004" data-entity-2="ent0005" data-link-type="dependency" data-source-line="21" id="lnk8"><path codeLine="21" d="M144.5,174.18 C144.5,195.89 144.5,219.62 144.5,238.99" fill="none" id="Download-to-workdir" style="stroke:#E7E7E7;stroke-width:1;"/><polygon fill="#E7E7E7" points="144.5,244.99,148.5,235.99,144.5,239.99,140.5,235.99,144.5,244.99" style="stroke:#E7E7E7;stroke-width:1;"/></g><?plantuml-src FOtD3O0m24RlJD45MC6J2pX25Mhy9MADCSRTfMdrmXVWyUYyaejUUuxkXWT0sf6xw9g3zR89Ob1PB8wTrO9sgwk1XQlbN6VnbD0Dq9OXMOBCnEfEqOa6pURo1R7ATiW_hFqayDiIL8vV?></g></svg>