<svg xmlns="http://www.w3.org/2000/svg" xmlns:xlink="http://www.w3.org/1999/xlink" contentStyleType="text/css" data-diagram-type="CLASS" height="295px" preserveAspectRatio="none" style="width:287px;height:295px;background:#1B1B1B;" version="1.1" viewBox="0 0 287 295" width="287px" zoomAndPan="magnify"><?plantuml 1.2026.3?><defs/><g><rect fill="#1B1B1B" height="295" style="stroke:none;stroke-width:1;" width="287" x="0" y="0"/><!--entity target--><g class="entity" data-qualified-name="target" data-source-line="1" id="ent0002"><rect fill="#313139" height="22.2969" rx="2.5" ry="2.5" style="stroke:#E7E7E7;stroke-width:0.5;" width="62.8135" x="94" y="7"/><text fill="#FFFFFF" font-family="sans-serif" font-size="14" lengthAdjust="spacing" textLength="42.8135" x="104" y="22.9951">target</text></g><!--entity workdir--><g class="entity" data-qualified-name="workdir" data-source-line="18" id="ent0006"><path d="M193,226 L234,226 A3.75,3.75 0 0 1 236.5,228.5 L243.5,247 L270.4111,247 A2.5,2.5 0 0 1 272.9111,249.5 L272.9111,277.7969 A2.5,2.5 0 0 1 270.4111,280.2969 L193,280.2969 A2.5,2.5 0 0 1 190.5,277.7969 L190.5,228.5 A2.5,2.5 0 0 1 193,226" fill="#313139" style="stroke:#E7E7E7;stroke-width:0.5;"/><line style="stroke:#E7E7E7;stroke-width:0.5;" x1="190.5" x2="243.5" y1="247" y2="247"/><text fill="#FFFFFF" font-family="sans-serif" font-size="14" lengthAdjust="spacing" textLength="52.4111" x="200.5" y="266.9951">workdir</text></g><g class="entity" data-qualified-name="Setup" data-source-line="4" id="ent0003"><rect fill="#313139" height="60.8906" rx="2.5" ry="2.5" style="stroke:#E7E7E7;stroke-width:0.5;" width="54.9912" x="7" y="97"/><text fill="#FFFFFF" font-family="sans-serif" font-size="14" lengthAdjust="spacing" textLength="40.749" x="14.1211" y="111.9951">Setup</text><line style="stroke:#E7E7E7;stroke-width:0.5;" x1="8" x2="60.9912" y1="117.2969" y2="117.2969"/><text fill="#FFFFFF" font-family="sans-serif" font-size="14" lengthAdjust="spacing" textLength="42.9912" x="13" y="134.292">--from</text><text fill="#FFFFFF" font-family="sans-serif" font-size="14" lengthAdjust="spacing" textLength="40.6396" x="13" y="150.5889">--user</text></g><g class="entity" data-qualified-name="Query" data-source-line="8" id="ent0004"><rect fill="#313139" height="60.8906" rx="2.5" ry="2.5" style="stroke:#E7E7E7;stroke-width:0.5;" width="56.5469" x="97" y="97"/><text fill="#FFFFFF" font-family="sans-serif" font-size="14" lengthAdjust="spacing" textLength="42.5469" x="104" y="111.9951">Query</text><line style="stroke:#E7E7E7;stroke-width:0.5;" x1="98" x2="152.5469" y1="117.2969" y2="117.2969"/><text fill="#FFFFFF" font-family="sans-serif" font-size="14" lengthAdjust="spacing" textLength="32.04" x="103" y="134.292">--dsr</text><text fill="#FFFFFF" font-family="sans-serif" font-size="14" lengthAdjust="spacing" textLength="13.9248" x="103" y="150.5889">-n</text></g><g class="entity" data-qualified-name="Download" data-source-line="12" id="ent0005"><rect fill="#313139" height="77.1875" rx="2.5" ry="2.5" style="stroke:#E7E7E7;stroke-width:0.5;" width="83.5898" x="189.5" y="89"/><text fill="#FFFFFF" font-family="sans-serif" font-size="14" lengthAdjust="spacing" textLength="69.5898" x="196.5" y="103.9951">Download</text><line style="stroke:#E7E7E7;stroke-width:0.5;" x1="190.5" x2="272.0898" y1="109.2969" y2="109.2969"/><text fill="#FFFFFF" font-family="sans-serif" font-size="14" lengthAdjust="spacing" textLength="13.9385" x="195.5" y="126.292">-q</text><text fill="#FFFFFF" font-family="sans-serif" font-size="14" lengthAdjust="spacing" textLength="10.8076" x="195.5" y="142.5889">-r</text><text fill="#FFFFFF" font-family="sans-serif" font-size="14" lengthAdjust="spacing" textLength="9.9805" x="195.5" y="158.8857">-f</text></g><!--link Setup to Query--><g class="link" data-entity-1="ent0003" data-entity-2="ent0004" data-link-type="dependency" data-source-line="21" id="lnk7"><path codeLine="21" d="M62.23,127.5 C73.76,127.5 79.3,127.5 90.83,127.5" fill="none" id="Setup-to-Query" style="stroke:#E7E7E7;stroke-width:1;"/><polygon fill="#E7E7E7" points="96.83,127.5,87.83,123.5,91.83,127.5,87.83,131.5,96.83,127.5" style="stroke:#E7E7E7;stroke-width:1;"/></g><!--link target to Query--><g class="link" data-entity-1="ent0002" data-entity-2="ent0004" data-link-type="dependency" data-source-line="22" id="lnk8"><path codeLine="22" d="M125.5,29.31 C125.5,44.65 125.5,68.11 125.5,90.59" fill="none" id="target-to-Query" style="stroke:#E7E7E7;stroke-width:1;"/><polygon fill="#E7E7E7" points="125.5,96.59,129.5,87.59,125.5,91.59,121.5,87.59,125.5,96.59" style="stroke:#E7E7E7;stroke-width:1;"/></g><!--link Query to Download--><g class="link" data-entity-1="ent0004" data-entity-2="ent0005" data-link-type="dependency" data-source-line="23" id="lnk9"><path codeLine="23" d="M154.07,127.5 C165.87,127.5 171.66,127.5 183.46,127.5" fill="none" id="Query-to-Download" style="stroke:#E7E7E7;stroke-width:1;"/><polygon fill="#E7E7E7" points="189.46,127.5,180.46,123.5,184.46,127.5,180.46,131.5,189.46,127.5" style="stroke:#E7E7E7;stroke-width:1;"/></g><!--link Download to workdir--><g class="link" data-entity-1="ent0005" data-entity-2="ent0006" data-link-type="dependency" data-source-line="24" id="lnk10"><path codeLine="24" d="M231.5,166.23 C231.5,185.52 231.5,205.52 231.5,222.85" fill="none" id="Download-to-workdir" style="stroke:#E7E7E7;stroke-width:1;"/><polygon fill="#E7E7E7" points="231.5,228.85,235.5,219.85,231.5,223.85,227.5,219.85,231.5,228.85" style="stroke:#E7E7E7;stroke-width:1;"/></g><?plantuml-src HOx13S8m34NldY8BU0LEB82O8DGE0aeDluagXDYz3WdbPFa_wtqF4H9on5bpUDE7o4vN7N8uQYuFJvWJxEwZp0hd7H-AulN5CeDu-fEzBTDeKIfy4ZjCLPji54LO33Uve5Mr3jur6_KlU0jQYQy_9stoUjHTAm00?></g></svg>