<svg xmlns="http://www.w3.org/2000/svg" xmlns:xlink="http://www.w3.org/1999/xlink" contentStyleType="text/css" data-diagram-type="CHART" height="488px" preserveAspectRatio="none" style="width:595px;height:488px;background:#FFFFFF;" version="1.1" viewBox="0 0 595 488" width="595px" zoomAndPan="magnify"><?plantuml 1.2026.3?><defs/><g><g class="title" data-source-line="1"><text fill="#000000" font-family="sans-serif" font-size="14" font-weight="700" lengthAdjust="spacing" textLength="544.2021" x="24.4111" y="32.9951">Stretching curve for various values of a (with w = 22.5 and b = 28.5)</text></g><line style="stroke:#181818;stroke-width:0.5;" x1="70" x2="70" y1="97.2969" y2="397.2969"/><line style="stroke:#181818;stroke-width:0.5;" x1="70" x2="65" y1="397.2969" y2="397.2969"/><text fill="#000000" font-family="sans-serif" font-size="14" lengthAdjust="spacing" textLength="8.9072" x="51.0928" y="402.1436">0</text><line style="stroke:#181818;stroke-width:0.5;" x1="70" x2="65" y1="97.2969" y2="97.2969"/><text fill="#000000" font-family="sans-serif" font-size="14" lengthAdjust="spacing" textLength="8.9072" x="51.0928" y="102.1436">1</text><text fill="#000000" font-family="sans-serif" font-size="14" lengthAdjust="spacing" textLength="66.7119" x="16.644" y="78.9951">stretched</text><line style="stroke:#181818;stroke-width:0.5;" x1="70" x2="470" y1="397.2969" y2="397.2969"/><line style="stroke:#181818;stroke-width:0.5;" x1="70" x2="70" y1="397.2969" y2="402.2969"/><text fill="#000000" font-family="sans-serif" font-size="14" lengthAdjust="spacing" textLength="8.9072" x="65.5464" y="420.292">0</text><line style="stroke:#181818;stroke-width:0.5;" x1="470" x2="470" y1="397.2969" y2="402.2969"/><text fill="#000000" font-family="sans-serif" font-size="14" lengthAdjust="spacing" textLength="8.9072" x="465.5464" y="420.292">1</text><text fill="#000000" font-family="sans-serif" font-size="14" lengthAdjust="spacing" textLength="36.0117" x="480" y="402.1436">input</text><line style="stroke:#FF8888;stroke-width:2;" x1="70" x2="71" y1="350.2961" y2="317.0411"/><line style="stroke:#FF8888;stroke-width:2;" x1="71" x2="74" y1="317.0411" y2="271.1334"/><line style="stroke:#FF8888;stroke-width:2;" x1="74" x2="79" y1="271.1334" y2="240.8858"/><line style="stroke:#FF8888;stroke-width:2;" x1="79" x2="86" y1="240.8858" y2="219.1742"/><line style="stroke:#FF8888;stroke-width:2;" x1="86" x2="95" y1="219.1742" y2="202.2931"/><line style="stroke:#FF8888;stroke-width:2;" x1="95" x2="106" y1="202.2931" y2="188.4902"/><line style="stroke:#FF8888;stroke-width:2;" x1="106" x2="119" y1="188.4902" y2="176.8167"/><line style="stroke:#FF8888;stroke-width:2;" x1="119" x2="134" y1="176.8167" y2="166.7034"/><line style="stroke:#FF8888;stroke-width:2;" x1="134" x2="151" y1="166.7034" y2="157.7822"/><line style="stroke:#FF8888;stroke-width:2;" x1="151" x2="170" y1="157.7822" y2="149.8017"/><line style="stroke:#FF8888;stroke-width:2;" x1="170" x2="191" y1="149.8017" y2="142.5823"/><line style="stroke:#FF8888;stroke-width:2;" x1="191" x2="214" y1="142.5823" y2="135.9914"/><line style="stroke:#FF8888;stroke-width:2;" x1="214" x2="239" y1="135.9914" y2="129.9283"/><line style="stroke:#FF8888;stroke-width:2;" x1="239" x2="266" y1="129.9283" y2="124.3147"/><line style="stroke:#FF8888;stroke-width:2;" x1="266" x2="295" y1="124.3147" y2="119.0886"/><line style="stroke:#FF8888;stroke-width:2;" x1="295" x2="326" y1="119.0886" y2="114.1999"/><line style="stroke:#FF8888;stroke-width:2;" x1="326" x2="359" y1="114.1999" y2="109.6076"/><line style="stroke:#FF8888;stroke-width:2;" x1="359" x2="394" y1="109.6076" y2="105.2779"/><line style="stroke:#FF8888;stroke-width:2;" x1="394" x2="431" y1="105.2779" y2="101.1823"/><line style="stroke:#FF8888;stroke-width:2;" x1="431" x2="470" y1="101.1823" y2="97.2969"/><line style="stroke:#000000;stroke-width:2;" x1="70" x2="71" y1="382.6333" y2="373.368"/><line style="stroke:#000000;stroke-width:2;" x1="71" x2="74" y1="373.368" y2="347.5292"/><line style="stroke:#000000;stroke-width:2;" x1="74" x2="79" y1="347.5292" y2="314.8447"/><line style="stroke:#000000;stroke-width:2;" x1="79" x2="86" y1="314.8447" y2="284.96"/><line style="stroke:#000000;stroke-width:2;" x1="86" x2="95" y1="284.96" y2="259.9014"/><line style="stroke:#000000;stroke-width:2;" x1="95" x2="106" y1="259.9014" y2="238.8688"/><line style="stroke:#000000;stroke-width:2;" x1="106" x2="119" y1="238.8688" y2="220.892"/><line style="stroke:#000000;stroke-width:2;" x1="119" x2="134" y1="220.892" y2="205.2418"/><line style="stroke:#000000;stroke-width:2;" x1="134" x2="151" y1="205.2418" y2="191.4022"/><line style="stroke:#000000;stroke-width:2;" x1="151" x2="170" y1="191.4022" y2="179.0048"/><line style="stroke:#000000;stroke-width:2;" x1="170" x2="191" y1="179.0048" y2="167.7808"/><line style="stroke:#000000;stroke-width:2;" x1="191" x2="214" y1="167.7808" y2="157.5289"/><line style="stroke:#000000;stroke-width:2;" x1="214" x2="239" y1="157.5289" y2="148.0949"/><line style="stroke:#000000;stroke-width:2;" x1="239" x2="266" y1="148.0949" y2="139.3584"/><line style="stroke:#000000;stroke-width:2;" x1="266" x2="295" y1="139.3584" y2="131.2238"/><line style="stroke:#000000;stroke-width:2;" x1="295" x2="326" y1="131.2238" y2="123.6135"/><line style="stroke:#000000;stroke-width:2;" x1="326" x2="359" y1="123.6135" y2="116.4642"/><line style="stroke:#000000;stroke-width:2;" x1="359" x2="394" y1="116.4642" y2="109.7232"/><line style="stroke:#000000;stroke-width:2;" x1="394" x2="431" y1="109.7232" y2="103.3466"/><line style="stroke:#000000;stroke-width:2;" x1="431" x2="470" y1="103.3466" y2="97.2969"/><line style="stroke:#88FF88;stroke-width:2;" x1="70" x2="71" y1="393.3667" y2="390.8982"/><line style="stroke:#88FF88;stroke-width:2;" x1="71" x2="74" y1="390.8982" y2="383.5082"/><line style="stroke:#88FF88;stroke-width:2;" x1="74" x2="79" y1="383.5082" y2="371.3316"/><line style="stroke:#88FF88;stroke-width:2;" x1="79" x2="86" y1="371.3316" y2="354.8513"/><line style="stroke:#88FF88;stroke-width:2;" x1="86" x2="95" y1="354.8513" y2="335.0909"/><line style="stroke:#88FF88;stroke-width:2;" x1="95" x2="106" y1="335.0909" y2="313.4923"/><line style="stroke:#88FF88;stroke-width:2;" x1="106" x2="119" y1="313.4923" y2="291.4702"/><line style="stroke:#88FF88;stroke-width:2;" x1="119" x2="134" y1="291.4702" y2="270.0315"/><line style="stroke:#88FF88;stroke-width:2;" x1="134" x2="151" y1="270.0315" y2="249.7114"/><line style="stroke:#88FF88;stroke-width:2;" x1="151" x2="170" y1="249.7114" y2="230.7052"/><line style="stroke:#88FF88;stroke-width:2;" x1="170" x2="191" y1="230.7052" y2="213.0202"/><line style="stroke:#88FF88;stroke-width:2;" x1="191" x2="214" y1="213.0202" y2="196.5773"/><line style="stroke:#88FF88;stroke-width:2;" x1="214" x2="239" y1="196.5773" y2="181.2663"/><line style="stroke:#88FF88;stroke-width:2;" x1="239" x2="266" y1="181.2663" y2="166.9725"/><line style="stroke:#88FF88;stroke-width:2;" x1="266" x2="295" y1="166.9725" y2="153.588"/><line style="stroke:#88FF88;stroke-width:2;" x1="295" x2="326" y1="153.588" y2="141.0157"/><line style="stroke:#88FF88;stroke-width:2;" x1="326" x2="359" y1="141.0157" y2="129.1702"/><line style="stroke:#88FF88;stroke-width:2;" x1="359" x2="394" y1="129.1702" y2="117.9771"/><line style="stroke:#88FF88;stroke-width:2;" x1="394" x2="431" y1="117.9771" y2="107.3714"/><line style="stroke:#88FF88;stroke-width:2;" x1="431" x2="470" y1="107.3714" y2="97.2969"/><line style="stroke:#8888FF;stroke-width:2;" x1="70" x2="71" y1="395.7793" y2="394.8262"/><line style="stroke:#8888FF;stroke-width:2;" x1="71" x2="74" y1="394.8262" y2="391.9673"/><line style="stroke:#8888FF;stroke-width:2;" x1="74" x2="79" y1="391.9673" y2="387.2038"/><line style="stroke:#8888FF;stroke-width:2;" x1="79" x2="86" y1="387.2038" y2="380.541"/><line style="stroke:#8888FF;stroke-width:2;" x1="86" x2="95" y1="380.541" y2="371.9924"/><line style="stroke:#8888FF;stroke-width:2;" x1="95" x2="106" y1="371.9924" y2="361.5856"/><line style="stroke:#8888FF;stroke-width:2;" x1="106" x2="119" y1="361.5856" y2="349.3695"/><line style="stroke:#8888FF;stroke-width:2;" x1="119" x2="134" y1="349.3695" y2="335.4211"/><line style="stroke:#8888FF;stroke-width:2;" x1="134" x2="151" y1="335.4211" y2="319.8515"/><line style="stroke:#8888FF;stroke-width:2;" x1="151" x2="170" y1="319.8515" y2="302.809"/><line style="stroke:#8888FF;stroke-width:2;" x1="170" x2="191" y1="302.809" y2="284.478"/><line style="stroke:#8888FF;stroke-width:2;" x1="191" x2="214" y1="284.478" y2="265.0723"/><line style="stroke:#8888FF;stroke-width:2;" x1="214" x2="239" y1="265.0723" y2="244.8246"/><line style="stroke:#8888FF;stroke-width:2;" x1="239" x2="266" y1="244.8246" y2="223.973"/><line style="stroke:#8888FF;stroke-width:2;" x1="266" x2="295" y1="223.973" y2="202.747"/><line style="stroke:#8888FF;stroke-width:2;" x1="295" x2="326" y1="202.747" y2="181.3559"/><line style="stroke:#8888FF;stroke-width:2;" x1="326" x2="359" y1="181.3559" y2="159.9812"/><line style="stroke:#8888FF;stroke-width:2;" x1="359" x2="394" y1="159.9812" y2="138.7727"/><line style="stroke:#8888FF;stroke-width:2;" x1="394" x2="431" y1="138.7727" y2="117.8483"/><line style="stroke:#8888FF;stroke-width:2;" x1="431" x2="470" y1="117.8483" y2="97.2969"/><line style="stroke:#FF8888;stroke-width:2;" x1="480" x2="492" y1="103.2969" y2="103.2969"/><text fill="#000000" font-family="sans-serif" font-size="14" lengthAdjust="spacing" textLength="47.0244" x="497" y="110.292">a = 29</text><line style="stroke:#000000;stroke-width:2;" x1="480" x2="492" y1="134.5938" y2="134.5938"/><text fill="#000000" font-family="sans-serif" font-size="14" lengthAdjust="spacing" textLength="47.0244" x="497" y="141.5889">a = 27</text><line style="stroke:#88FF88;stroke-width:2;" x1="480" x2="492" y1="165.8906" y2="165.8906"/><text fill="#000000" font-family="sans-serif" font-size="14" lengthAdjust="spacing" textLength="47.0244" x="497" y="172.8857">a = 25</text><line style="stroke:#8888FF;stroke-width:2;" x1="480" x2="492" y1="197.1875" y2="197.1875"/><text fill="#000000" font-family="sans-serif" font-size="14" lengthAdjust="spacing" textLength="47.0244" x="497" y="204.1826">a = 23</text><?plantuml-src VPV1RXiv38RlUOf1Ucc19X0fKQGEk-YfBx37nHxSraqC64cGEEq-_dxop6HjnvuUd3JYQ2Zn_txINrvsg-VTzti-hdQRtNOzNF-rUrxpbyt3tV3zzVdNUlZv-3pyMZrl7bzV-BbzNRyCZp-7rV3nzsPtF_mU_XXKRsrOFVmOllN_nArzkhwwlrdzktaPhZSFJw-xwo4DDpT_3ZAyFAs-zwrbsAw-hRStpvkx-ztLhoduPNpt-iVb1tQFJrVRpGE9hlhBslNmzyTqcpuFwLQirjgoUjPSSzHFduU-bDJIqJ_hmLhTf1MfDPScAdcAbkFOf3suQB9IMiivLJQJCWNhoTQr1nkRUTBaDTZCPOejn_lAFhHbBrgarA9yn1HQTP_Y_bLAVg4XPZgjjZC9rbP9HfjBbaWsHif9Uhb7EiVDEVfPIajjEhRKuqt7q1gLKzScARFJjAkcCJjlaKDviAOIdgVSnxNGmchJYD3Cpt4jdrHY32MB4jMg5BUQftnoVNzPuP8aicGjQk5ZO3avOzb7Kb2DdbapotDgfRtVanje9Pa4fqeolzsc0ZIarFU895GXjN6rbZFxbCmHF5lofiqcwVbnScEaHQFQhN1en3gf8yOrvxBGS1KDgZvTU4jdTWddrZWRWU6wZvHE0H-V_Xa-V8qufCGFAE6vy2WSI0uIk409n_6gRePUl8ct9KgaSZPLRi2HuroXyv2eboYfEXGcnA9rWH8OAKOT6bhg8l5ZJ8eXHICbzUG1e0kSc0QQBu5GtF8I9nQzwYfXY8s_BN228D0bMrVEa-i99q2KeRU9DDRK3pbnzQwcnbCWbCe29uuRa742gOfnoMLEd8l2tNg9mjviupme-1cQin31g9fT1YMiUIiXfU2joKz08QTk4ZYVQNQt1L2uR4SUYlGAT2s0agjGG-4WXW3Y21GBymXnGyTHP06KRbCbPwvFRUJoa1F23ZcnGqwmKiJQSSPlB2stauJfOtVuRosP7jGM-qagnXKeDyu3MBylDfH4nGtPKbTfwCWNM16Q2PBjxW0G2EkO5RfIjgpQcoHlVNllELQW658AvTnRMop0GkNn25fBHiKnL_KiBBGxpelW76xBt4bdM6Z5pJ3RHCb2oF-G5iISatNfsBv_BT12D-dbpZGXUagnoxJWWLW6Hfgw7aKMQ75QH69ceCK6HfSlquAjSRcS1S2ApKR-Hel04BtQjMdlB9Tf2QJd79dX0pxJ0Ys1FniqA3x2pD2EQ478jIOkBVSUwWkqr5gmCaeeADJr59VuUjHMyY4k2NzY-zWR2Twfoxma9eEUhnWzECqTym8kujvDpnoTjP1P5XTmoPt1qcsD9_vFv1mkoQpJuc3Zp0ed0rYAqeSlxUEXfTbcpiA2kwVSUrdN1itD5sZXo8vzDIhBiTwwq3bQjAV22EYCW6zLdM6XCOa9BsjqZxVHQLoZWCqOCf9MceMr1LRmHjxI-g1atD42Ars5p7g5EKLocXC_omgDIfcOw8WmdkUMVOuLSrX11zxR9EFCCIiL1seCLFWBs9K5Lf1T902c_ChahPTP0Sn4g-gTo6gRkzN8IjHkYyf8XSvgM-ei-ol6ewXFS0VlM8clLzlrtPglHUENd2_yEdxJkf9UmtgR_mC0?></g></svg>