<svg xmlns="http://www.w3.org/2000/svg" xmlns:xlink="http://www.w3.org/1999/xlink" contentStyleType="text/css" data-diagram-type="CLASS" height="230px" preserveAspectRatio="none" style="width:130px;height:230px;background:#1B1B1B;" version="1.1" viewBox="0 0 130 230" width="130px" zoomAndPan="magnify"><?plantuml 1.2026.3?><defs/><g><rect fill="#1B1B1B" height="230" style="stroke:none;stroke-width:1;" width="130" x="0" y="0"/><!--entity variables--><g class="entity" data-qualified-name="variables" data-source-line="1" id="ent0002"><rect fill="#313139" height="22.2969" rx="2.5" ry="2.5" style="stroke:#E7E7E7;stroke-width:0.5;" width="83.7725" x="19.5" y="7"/><text fill="#FFFFFF" font-family="sans-serif" font-size="14" lengthAdjust="spacing" textLength="63.7725" x="29.5" y="22.9951">variables</text></g><!--entity environment--><g class="entity" data-qualified-name="environment" data-source-line="6" id="ent0004"><rect fill="#313139" height="22.2969" rx="2.5" ry="2.5" style="stroke:#E7E7E7;stroke-width:0.5;" width="109.4688" x="7" y="194"/><text fill="#FFFFFF" font-family="sans-serif" font-size="14" lengthAdjust="spacing" textLength="89.4688" x="17" y="209.9951">environment</text></g><g class="entity" data-qualified-name="Collect" data-source-line="3" id="ent0003"><rect fill="#313139" height="44.5938" rx="2.5" ry="2.5" style="stroke:#E7E7E7;stroke-width:0.5;" width="62.4629" x="30.5" y="89"/><text fill="#FFFFFF" font-family="sans-serif" font-size="14" lengthAdjust="spacing" textLength="47.9199" x="37.7715" y="103.9951">Collect</text><line style="stroke:#E7E7E7;stroke-width:0.5;" x1="31.5" x2="91.9629" y1="109.2969" y2="109.2969"/><text fill="#FFFFFF" font-family="sans-serif" font-size="14" lengthAdjust="spacing" textLength="50.4629" x="36.5" y="126.292">--prefix</text></g><!--link variables to Collect--><g class="link" data-entity-1="ent0002" data-entity-2="ent0003" data-link-type="dependency" data-source-line="9" id="lnk5"><path codeLine="9" d="M61.5,29.14 C61.5,43.47 61.5,64 61.5,82.87" fill="none" id="variables-to-Collect" style="stroke:#E7E7E7;stroke-width:1;"/><polygon fill="#E7E7E7" points="61.5,88.87,65.5,79.87,61.5,83.87,57.5,79.87,61.5,88.87" style="stroke:#E7E7E7;stroke-width:1;"/></g><!--link Collect to environment--><g class="link" data-entity-1="ent0003" data-entity-2="ent0004" data-link-type="dependency" data-source-line="10" id="lnk6"><path codeLine="10" d="M61.5,134.18 C61.5,153 61.5,173.4 61.5,187.75" fill="none" id="Collect-to-environment" style="stroke:#E7E7E7;stroke-width:1;"/><polygon fill="#E7E7E7" points="61.5,193.75,65.5,184.75,61.5,188.75,57.5,184.75,61.5,193.75" style="stroke:#E7E7E7;stroke-width:1;"/></g><?plantuml-src IquiIb4eIopAJ4pAIIrMgEQgvSfFoafDBb5mpi_90T7LNBgw1KMfQPaLGBbaaFBKlBBCeloytDIy4h06BeH-NLqxc4Okc04WCIGj0000?></g></svg>